<svg xmlns="http://www.w3.org/2000/svg" viewBox="0 0 64 64">
  <rect width="64" height="64" fill="#ffffff"/>
  <path d="M6 30c8 1.5 14 1 20-2M4 36c9 1 15 0 22-3M7 42c7 0.5 13 0 18-2.5" fill="none" stroke="#111" stroke-width="2.2" stroke-linecap="round"/>
  <path d="M26 54V12h16c10 0 17 5.5 17 14.5S52 41 42 41H26Z" fill="#111"/>
  <path d="M33 20v14h7c5 0 9-2.5 9-7s-4-7-9-7h-7Z" fill="#fff"/>
  <path d="M29 13l5-9 5 9Z" fill="#111"/>
  <path d="M41 13l7-10 5 10Z" fill="#111"/>
  <path d="M43 12.5l5.5-7.5 3 7.5Z" fill="#FF2D95"/>
</svg>
